<?xml version="1.0" standalone="no"?>
<!DOCTYPE svg PUBLIC "-//W3C//DTD SVG 20010904//EN"
 "http://www.w3.org/TR/2001/REC-SVG-20010904/DTD/svg10.dtd">
<svg version="1.0" xmlns="http://www.w3.org/2000/svg"
 width="225.000000pt" height="225.000000pt" viewBox="0 0 225.000000 225.000000"
 preserveAspectRatio="xMidYMid meet">

<g transform="translate(0.000000,225.000000) scale(0.100000,-0.100000)"
fill="#000000" stroke="none">
<path d="M1088 2238 c-16 -5 -28 -14 -28 -19 0 -6 -4 -8 -9 -5 -18 11 -45 -48
-44 -97 1 -39 6 -54 29 -78 16 -16 39 -32 51 -35 23 -6 23 -9 23 -140 0 -112
2 -134 15 -134 13 0 15 22 15 135 0 112 3 135 15 135 8 0 30 14 50 31 30 27
35 37 35 76 0 59 -20 93 -68 121 -44 24 -46 25 -84 10z"/>
<path d="M1795 1938 c-11 -6 -35 -24 -52 -41 -26 -25 -33 -39 -33 -70 0 -21 5
-48 11 -59 10 -18 1 -31 -82 -114 -62 -63 -90 -97 -83 -104 6 -6 41 22 103 84
l94 94 34 -15 c46 -19 83 -10 122 31 62 64 45 159 -34 192 -41 17 -53 17 -80
2z"/>
<path d="M390 1918 c-100 -68 -52 -218 69 -218 26 0 52 5 59 12 9 9 31 -9 93
-76 55 -58 85 -84 92 -77 7 7 -17 39 -71 98 -74 81 -79 89 -66 107 43 62 -14
164 -98 173 -34 4 -51 0 -78 -19z"/>
<path d="M1050 1549 c-175 -29 -320 -179 -349 -359 -37 -231 125 -452 359
-489 231 -37 452 125 489 359 37 231 -125 451 -359 489 -36 6 -69 10 -75 10
-5 -1 -35 -5 -65 -10z m150 -344 l0 -225 -60 0 -60 0 0 225 0 225 60 0 60 0 0
-225z m-13 -311 c15 -24 15 -29 2 -53 -11 -20 -22 -26 -49 -26 -27 0 -38 6
-49 26 -13 24 -13 29 2 53 12 18 26 26 47 26 21 0 35 -8 47 -26z"/>
<path d="M95 1243 c-30 -8 -65 -34 -59 -44 3 -5 1 -9 -5 -9 -19 0 -32 -64 -20
-98 6 -18 15 -32 21 -32 5 0 7 -4 4 -9 -10 -16 48 -44 92 -44 51 0 90 25 112
71 l15 32 133 0 c111 0 132 2 132 15 0 13 -21 15 -132 15 l-133 0 -15 32 c-25
53 -91 85 -145 71z"/>
<path d="M2031 1205 c-17 -20 -31 -42 -31 -50 0 -12 -23 -15 -135 -15 -113 0
-135 -2 -135 -15 0 -13 22 -15 134 -15 131 0 134 0 140 -23 10 -40 58 -77 102
-78 54 -1 74 3 74 13 0 4 7 8 15 8 8 0 15 7 15 15 0 8 4 15 9 15 5 0 15 16 21
35 10 30 9 40 -12 76 -28 49 -62 69 -121 69 -39 0 -49 -5 -76 -35z"/>
<path d="M1547 694 c-4 -4 34 -51 85 -106 85 -92 90 -100 79 -124 -15 -33 -14
-94 1 -94 6 0 8 -3 5 -6 -4 -4 9 -22 29 -40 29 -28 43 -34 80 -34 24 0 44 5
44 10 0 6 4 9 9 8 5 -2 20 10 35 25 44 47 31 149 -22 172 -12 5 -22 13 -22 17
0 12 -79 9 -102 -3 -18 -9 -30 0 -110 85 -88 94 -98 102 -111 90z"/>
<path d="M604 600 l-90 -91 -46 12 c-79 21 -147 -24 -155 -103 -7 -79 43 -132
124 -130 41 0 52 5 80 36 26 28 33 44 33 77 0 22 -5 50 -11 61 -10 18 -1 31
85 117 84 84 102 111 77 111 -3 0 -47 -41 -97 -90z"/>
<path d="M1110 386 c0 -131 0 -134 -23 -140 -12 -3 -35 -19 -51 -35 -23 -24
-28 -39 -29 -78 -1 -49 26 -108 44 -97 5 3 9 1 9 -4 0 -20 62 -33 97 -21 18 6
33 15 33 20 0 5 6 9 13 9 18 0 45 79 39 118 -4 33 -60 92 -87 92 -12 0 -15 23
-15 135 0 113 -2 135 -15 135 -13 0 -15 -22 -15 -134z"/>
</g>
</svg>
